<svg xmlns="http://www.w3.org/2000/svg" width="64" height="64" viewBox="0 0 64 64" fill="none">
  <defs>
    <linearGradient id="tile" x1="0" y1="0" x2="0" y2="64" gradientUnits="userSpaceOnUse">
      <stop offset="0" stop-color="#2b2a26"/>
      <stop offset="1" stop-color="#1b1a17"/>
    </linearGradient>
    <linearGradient id="knight" x1="14" y1="10" x2="50" y2="54" gradientUnits="userSpaceOnUse">
      <stop offset="0" stop-color="#9ccc52"/>
      <stop offset="1" stop-color="#689f38"/>
    </linearGradient>
  </defs>

  <!-- Rounded board tile -->
  <rect x="1.5" y="1.5" width="61" height="61" rx="15" fill="url(#tile)" stroke="#7cb342" stroke-width="3"/>

  <!-- Chess knight silhouette (facing left) -->
  <path fill="url(#knight)" d="
    M16 52
    C16 47 19 46 23 45
    C21 41 22 37 24 34
    C20 35 16 35 14 32
    C13 30 14 27 17 25
    C22 21 27 18 33 13
    C35 11 38 10 41 12
    L45 10
    L45 16
    L49 16
    C50 24 49 31 45 36
    C42 40 41 44 42 46
    C46 47 49 48 49 52
    Z"/>

  <!-- Eye -->
  <circle cx="30.5" cy="23.5" r="2.2" fill="#1b1a17"/>
</svg>
